<svg width="264" height="211" viewBox="0 0 264 211" fill="none" xmlns="http://www.w3.org/2000/svg">
<circle cx="56.5" cy="38.5" r="17.5" fill="#C4C4C4"/>
<path d="M60.5742 42.5469H53.4258L51.8203 47H49.5L56.0156 29.9375H57.9844L64.5117 47H62.2031L60.5742 42.5469ZM54.1055 40.6953H59.9062L57 32.7148L54.1055 40.6953Z" fill="black"/>
<circle cx="146.5" cy="17.5" r="17.5" fill="#C4C4C4"/>
<path d="M141.504 26V8.9375H147.082C148.934 8.9375 150.324 9.32031 151.254 10.0859C152.191 10.8516 152.66 11.9844 152.66 13.4844C152.66 14.2812 152.434 14.9883 151.98 15.6055C151.527 16.2148 150.91 16.6875 150.129 17.0234C151.051 17.2812 151.777 17.7734 152.309 18.5C152.848 19.2188 153.117 20.0781 153.117 21.0781C153.117 22.6094 152.621 23.8125 151.629 24.6875C150.637 25.5625 149.234 26 147.422 26H141.504ZM143.754 18.0195V24.1602H147.469C148.516 24.1602 149.34 23.8906 149.941 23.3516C150.551 22.8047 150.855 22.0547 150.855 21.1016C150.855 19.0469 149.738 18.0195 147.504 18.0195H143.754ZM143.754 16.2148H147.152C148.137 16.2148 148.922 15.9688 149.508 15.4766C150.102 14.9844 150.398 14.3164 150.398 13.4727C150.398 12.5352 150.125 11.8555 149.578 11.4336C149.031 11.0039 148.199 10.7891 147.082 10.7891H143.754V16.2148Z" fill="black"/>
<circle cx="246.5" cy="76.5" r="17.5" fill="#C4C4C4"/>
<path d="M253.715 79.5859C253.504 81.3906 252.836 82.7852 251.711 83.7695C250.594 84.7461 249.105 85.2344 247.246 85.2344C245.23 85.2344 243.613 84.5117 242.395 83.0664C241.184 81.6211 240.578 79.6875 240.578 77.2656V75.625C240.578 74.0391 240.859 72.6445 241.422 71.4414C241.992 70.2383 242.797 69.3164 243.836 68.6758C244.875 68.0273 246.078 67.7031 247.445 67.7031C249.258 67.7031 250.711 68.2109 251.805 69.2266C252.898 70.2344 253.535 71.6328 253.715 73.4219H251.453C251.258 72.0625 250.832 71.0781 250.176 70.4688C249.527 69.8594 248.617 69.5547 247.445 69.5547C246.008 69.5547 244.879 70.0859 244.059 71.1484C243.246 72.2109 242.84 73.7227 242.84 75.6836V77.3359C242.84 79.1875 243.227 80.6602 244 81.7539C244.773 82.8477 245.855 83.3945 247.246 83.3945C248.496 83.3945 249.453 83.1133 250.117 82.5508C250.789 81.9805 251.234 80.9922 251.453 79.5859H253.715Z" fill="black"/>
<circle cx="190.5" cy="184.5" r="17.5" fill="#C4C4C4"/>
<path d="M185.105 193V175.938H189.922C191.406 175.938 192.719 176.266 193.859 176.922C195 177.578 195.879 178.512 196.496 179.723C197.121 180.934 197.438 182.324 197.445 183.895V184.984C197.445 186.594 197.133 188.004 196.508 189.215C195.891 190.426 195.004 191.355 193.848 192.004C192.699 192.652 191.359 192.984 189.828 193H185.105ZM187.355 177.789V191.16H189.723C191.457 191.16 192.805 190.621 193.766 189.543C194.734 188.465 195.219 186.93 195.219 184.938V183.941C195.219 182.004 194.762 180.5 193.848 179.43C192.941 178.352 191.652 177.805 189.98 177.789H187.355Z" fill="black"/>
<circle cx="122.5" cy="187.5" r="17.5" fill="#C4C4C4"/>
<path d="M127.805 188.113H120.41V194.16H129V196H118.16V178.938H128.883V180.789H120.41V186.273H127.805V188.113Z" fill="black"/>
<circle cx="17.5" cy="111.5" r="17.5" fill="#C4C4C4"/>
<path d="M22.7578 112.465H15.5977V120H13.3477V102.938H23.918V104.789H15.5977V110.625H22.7578V112.465Z" fill="black"/>
<circle cx="135.5" cy="73.5" r="17.5" fill="#C4C4C4"/>
<path d="M142.398 79.7617C141.82 80.5898 141.012 81.2109 139.973 81.625C138.941 82.0312 137.738 82.2344 136.363 82.2344C134.973 82.2344 133.738 81.9102 132.66 81.2617C131.582 80.6055 130.746 79.6758 130.152 78.4727C129.566 77.2695 129.266 75.875 129.25 74.2891V72.8008C129.25 70.2305 129.848 68.2383 131.043 66.8242C132.246 65.4102 133.934 64.7031 136.105 64.7031C137.887 64.7031 139.32 65.1602 140.406 66.0742C141.492 66.9805 142.156 68.2695 142.398 69.9414H140.148C139.727 67.6836 138.383 66.5547 136.117 66.5547C134.609 66.5547 133.465 67.0859 132.684 68.1484C131.91 69.2031 131.52 70.7344 131.512 72.7422V74.1367C131.512 76.0508 131.949 77.5742 132.824 78.707C133.699 79.832 134.883 80.3945 136.375 80.3945C137.219 80.3945 137.957 80.3008 138.59 80.1133C139.223 79.9258 139.746 79.6094 140.16 79.1641V75.332H136.211V73.5039H142.398V79.7617Z" fill="black"/>
<circle cx="198.5" cy="111.5" r="17.5" fill="#C4C4C4"/>
<path d="M205.539 120H203.277V112.113H194.676V120H192.426V102.938H194.676V110.273H203.277V102.938H205.539V120Z" fill="black"/>
<circle cx="117.5" cy="124.5" r="17.5" fill="#C4C4C4"/>
<path d="M119.125 133H116.875V115.938H119.125V133Z" fill="black"/>
<line x1="35.9674" y1="113.499" x2="99.4986" y2="122.033" stroke="black" stroke-width="3.5" stroke-linecap="round" stroke-linejoin="round"/>
<line x1="71.3468" y1="33.9237" x2="128.924" y2="21.6532" stroke="black" stroke-width="3.5" stroke-linecap="round" stroke-linejoin="round"/>
<line x1="161.376" y1="27.3062" x2="231.306" y2="65.6244" stroke="black" stroke-width="3.5" stroke-linecap="round" stroke-linejoin="round"/>
<line x1="212.748" y1="100.643" x2="228.538" y2="81.252" stroke="black" stroke-width="3.5" stroke-linecap="round" stroke-linejoin="round"/>
<line x1="190.687" y1="166.007" x2="198.902" y2="130.313" stroke="black" stroke-width="3.5" stroke-linecap="round" stroke-linejoin="round"/>
<line x1="207.27" y1="179.635" x2="252.635" y2="93.7303" stroke="black" stroke-width="3.5" stroke-linecap="round" stroke-linejoin="round"/>
<line x1="140.632" y1="55.6168" x2="144.937" y2="34.3677" stroke="black" stroke-width="3.5" stroke-linecap="round" stroke-linejoin="round"/>
<line x1="152.388" y1="81.3488" x2="184.349" y2="99.6123" stroke="black" stroke-width="3.5" stroke-linecap="round" stroke-linejoin="round"/>
<line x1="69.2845" y1="50.0481" x2="117.048" y2="69.7155" stroke="black" stroke-width="3.5" stroke-linecap="round" stroke-linejoin="round"/>
<line x1="121.2" y1="169.301" x2="120.433" y2="142.8" stroke="black" stroke-width="3.5" stroke-linecap="round" stroke-linejoin="round"/>
<line x1="23.3517" y1="94.2392" x2="46.6115" y2="53.6483" stroke="black" stroke-width="3.5" stroke-linecap="round" stroke-linejoin="round"/>
<line x1="140.639" y1="189.3" x2="172.194" y2="187.361" stroke="black" stroke-width="3.5" stroke-linecap="round" stroke-linejoin="round"/>
<line x1="135.405" y1="121.963" x2="180.963" y2="113.595" stroke="black" stroke-width="3.5" stroke-linecap="round" stroke-linejoin="round"/>
<line x1="119.122" y1="106.686" x2="126.686" y2="89.8777" stroke="black" stroke-width="3.5" stroke-linecap="round" stroke-linejoin="round"/>
<line x1="22.4354" y1="127.56" x2="104.329" y2="184.38" stroke="black" stroke-width="3.5" stroke-linecap="round" stroke-linejoin="round"/>
<path d="M24.2715 57.1172L18.9717 69H17.2666L22.5488 57.5391H15.623V56.2031H24.2715V57.1172Z" fill="black"/>
<path d="M245.395 148H237.01V146.831L241.439 141.909C242.096 141.165 242.547 140.562 242.793 140.099C243.045 139.63 243.171 139.146 243.171 138.648C243.171 137.98 242.969 137.433 242.564 137.005C242.16 136.577 241.621 136.363 240.947 136.363C240.139 136.363 239.509 136.595 239.058 137.058C238.612 137.515 238.39 138.153 238.39 138.974H236.764C236.764 137.796 237.142 136.844 237.897 136.117C238.659 135.391 239.676 135.027 240.947 135.027C242.137 135.027 243.077 135.341 243.769 135.968C244.46 136.589 244.806 137.418 244.806 138.455C244.806 139.715 244.003 141.215 242.397 142.955L238.97 146.673H245.395V148Z" fill="black"/>
<path d="M157.354 208H155.719V197.163L152.44 198.367V196.891L157.099 195.142H157.354V208Z" fill="black"/>
<path d="M188.771 141.543C188.771 142.182 188.601 142.75 188.261 143.248C187.927 143.746 187.473 144.136 186.898 144.417C187.566 144.704 188.094 145.123 188.48 145.674C188.873 146.225 189.069 146.849 189.069 147.546C189.069 148.653 188.694 149.535 187.944 150.191C187.2 150.848 186.219 151.176 185 151.176C183.77 151.176 182.782 150.848 182.038 150.191C181.3 149.529 180.931 148.647 180.931 147.546C180.931 146.854 181.118 146.23 181.493 145.674C181.874 145.117 182.398 144.695 183.066 144.408C182.498 144.127 182.05 143.737 181.722 143.239C181.394 142.741 181.229 142.176 181.229 141.543C181.229 140.465 181.575 139.609 182.267 138.977C182.958 138.344 183.869 138.027 185 138.027C186.125 138.027 187.033 138.344 187.725 138.977C188.422 139.609 188.771 140.465 188.771 141.543ZM187.443 147.511C187.443 146.796 187.215 146.213 186.758 145.762C186.307 145.311 185.715 145.085 184.982 145.085C184.25 145.085 183.661 145.308 183.216 145.753C182.776 146.198 182.557 146.784 182.557 147.511C182.557 148.237 182.771 148.809 183.198 149.225C183.632 149.641 184.232 149.849 185 149.849C185.762 149.849 186.359 149.641 186.793 149.225C187.227 148.803 187.443 148.231 187.443 147.511ZM185 139.363C184.361 139.363 183.843 139.562 183.444 139.961C183.052 140.354 182.855 140.89 182.855 141.569C182.855 142.22 183.049 142.747 183.436 143.151C183.828 143.55 184.35 143.749 185 143.749C185.65 143.749 186.169 143.55 186.556 143.151C186.948 142.747 187.145 142.22 187.145 141.569C187.145 140.919 186.942 140.389 186.538 139.979C186.134 139.568 185.621 139.363 185 139.363Z" fill="black"/>
<path d="M217.395 89H209.01V87.8311L213.439 82.9092C214.096 82.165 214.547 81.5615 214.793 81.0986C215.045 80.6299 215.171 80.1465 215.171 79.6484C215.171 78.9805 214.969 78.4326 214.564 78.0049C214.16 77.5771 213.621 77.3633 212.947 77.3633C212.139 77.3633 211.509 77.5947 211.058 78.0576C210.612 78.5146 210.39 79.1533 210.39 79.9736H208.764C208.764 78.7959 209.142 77.8438 209.897 77.1172C210.659 76.3906 211.676 76.0273 212.947 76.0273C214.137 76.0273 215.077 76.3408 215.769 76.9678C216.46 77.5889 216.806 78.418 216.806 79.4551C216.806 80.7148 216.003 82.2148 214.397 83.9551L210.97 87.6729H217.395V89Z" fill="black"/>
<path d="M201.874 35.7021H203.649V37.0293H201.874V40H200.239V37.0293H194.412V36.0713L200.143 27.2031H201.874V35.7021ZM196.258 35.7021H200.239V29.4268L200.046 29.7783L196.258 35.7021Z" fill="black"/>
<path d="M135.391 36.1943V37.5742H135.092C133.826 37.5977 132.818 37.9727 132.068 38.6992C131.318 39.4258 130.885 40.4482 130.768 41.7666C131.441 40.9932 132.361 40.6064 133.527 40.6064C134.641 40.6064 135.528 40.999 136.19 41.7842C136.858 42.5693 137.192 43.583 137.192 44.8252C137.192 46.1436 136.832 47.1982 136.111 47.9893C135.396 48.7803 134.436 49.1758 133.229 49.1758C132.004 49.1758 131.011 48.707 130.249 47.7695C129.487 46.8262 129.106 45.6133 129.106 44.1309V43.5068C129.106 41.1514 129.607 39.3525 130.609 38.1104C131.617 36.8623 133.114 36.2236 135.101 36.1943H135.391ZM133.255 41.96C132.698 41.96 132.186 42.127 131.717 42.4609C131.248 42.7949 130.923 43.2139 130.741 43.7178V44.3154C130.741 45.3701 130.979 46.2197 131.453 46.8643C131.928 47.5088 132.52 47.8311 133.229 47.8311C133.961 47.8311 134.535 47.5615 134.951 47.0225C135.373 46.4834 135.584 45.7773 135.584 44.9043C135.584 44.0254 135.37 43.3164 134.942 42.7773C134.521 42.2324 133.958 41.96 133.255 41.96Z" fill="black"/>
<path d="M172.374 79.8105H173.596C174.363 79.7988 174.967 79.5967 175.406 79.2041C175.846 78.8115 176.065 78.2812 176.065 77.6133C176.065 76.1133 175.318 75.3633 173.824 75.3633C173.121 75.3633 172.559 75.5654 172.137 75.9697C171.721 76.3682 171.513 76.8984 171.513 77.5605H169.887C169.887 76.5469 170.256 75.7061 170.994 75.0381C171.738 74.3643 172.682 74.0273 173.824 74.0273C175.031 74.0273 175.978 74.3467 176.663 74.9854C177.349 75.624 177.691 76.5117 177.691 77.6484C177.691 78.2051 177.51 78.7441 177.146 79.2656C176.789 79.7871 176.3 80.1768 175.679 80.4346C176.382 80.6572 176.924 81.0264 177.305 81.542C177.691 82.0576 177.885 82.6875 177.885 83.4316C177.885 84.5801 177.51 85.4912 176.76 86.165C176.01 86.8389 175.034 87.1758 173.833 87.1758C172.632 87.1758 171.653 86.8506 170.897 86.2002C170.147 85.5498 169.772 84.6914 169.772 83.625H171.407C171.407 84.2988 171.627 84.8379 172.066 85.2422C172.506 85.6465 173.095 85.8486 173.833 85.8486C174.618 85.8486 175.219 85.6436 175.635 85.2334C176.051 84.8232 176.259 84.2344 176.259 83.4668C176.259 82.7227 176.03 82.1514 175.573 81.7529C175.116 81.3545 174.457 81.1494 173.596 81.1377H172.374V79.8105Z" fill="black"/>
<path d="M160.874 133.702H162.649V135.029H160.874V138H159.239V135.029H153.412V134.071L159.143 125.203H160.874V133.702ZM155.258 133.702H159.239V127.427L159.046 127.778L155.258 133.702Z" fill="black"/>
<path d="M115.354 99H113.719V88.1631L110.44 89.3672V87.8906L115.099 86.1416H115.354V99Z" fill="black"/>
<path d="M117.395 161H109.01V159.831L113.439 154.909C114.096 154.165 114.547 153.562 114.793 153.099C115.045 152.63 115.171 152.146 115.171 151.648C115.171 150.98 114.969 150.433 114.564 150.005C114.16 149.577 113.621 149.363 112.947 149.363C112.139 149.363 111.509 149.595 111.058 150.058C110.612 150.515 110.39 151.153 110.39 151.974H108.764C108.764 150.796 109.142 149.844 109.897 149.117C110.659 148.391 111.676 148.027 112.947 148.027C114.137 148.027 115.077 148.341 115.769 148.968C116.46 149.589 116.806 150.418 116.806 151.455C116.806 152.715 116.003 154.215 114.397 155.955L110.97 159.673H117.395V161Z" fill="black"/>
<path d="M56.3906 160.194V161.574H56.0918C54.8262 161.598 53.8184 161.973 53.0684 162.699C52.3184 163.426 51.8848 164.448 51.7676 165.767C52.4414 164.993 53.3613 164.606 54.5273 164.606C55.6406 164.606 56.5283 164.999 57.1904 165.784C57.8584 166.569 58.1924 167.583 58.1924 168.825C58.1924 170.144 57.832 171.198 57.1113 171.989C56.3965 172.78 55.4355 173.176 54.2285 173.176C53.0039 173.176 52.0107 172.707 51.249 171.77C50.4873 170.826 50.1064 169.613 50.1064 168.131V167.507C50.1064 165.151 50.6074 163.353 51.6094 162.11C52.6172 160.862 54.1143 160.224 56.1006 160.194H56.3906ZM54.2549 165.96C53.6982 165.96 53.1855 166.127 52.7168 166.461C52.248 166.795 51.9229 167.214 51.7412 167.718V168.315C51.7412 169.37 51.9785 170.22 52.4531 170.864C52.9277 171.509 53.5195 171.831 54.2285 171.831C54.9609 171.831 55.5352 171.562 55.9512 171.022C56.373 170.483 56.584 169.777 56.584 168.904C56.584 168.025 56.3701 167.316 55.9424 166.777C55.5205 166.232 54.958 165.96 54.2549 165.96Z" fill="black"/>
<path d="M66.7568 107.584L67.4072 101.203H73.9639V102.706H68.7871L68.4004 106.195C69.0273 105.826 69.7393 105.642 70.5361 105.642C71.7021 105.642 72.6279 106.028 73.3135 106.802C73.999 107.569 74.3418 108.609 74.3418 109.922C74.3418 111.24 73.9844 112.28 73.2695 113.042C72.5605 113.798 71.5674 114.176 70.29 114.176C69.1592 114.176 68.2363 113.862 67.5215 113.235C66.8066 112.608 66.3994 111.741 66.2998 110.634H67.8379C67.9375 111.366 68.1982 111.92 68.6201 112.295C69.042 112.664 69.5986 112.849 70.29 112.849C71.0459 112.849 71.6377 112.591 72.0654 112.075C72.499 111.56 72.7158 110.848 72.7158 109.939C72.7158 109.084 72.4814 108.398 72.0127 107.883C71.5498 107.361 70.9316 107.101 70.1582 107.101C69.4492 107.101 68.8926 107.256 68.4883 107.566L68.0576 107.918L66.7568 107.584Z" fill="black"/>
<path d="M102.395 22H94.0098V20.8311L98.4395 15.9092C99.0957 15.165 99.5469 14.5615 99.793 14.0986C100.045 13.6299 100.171 13.1465 100.171 12.6484C100.171 11.9805 99.9688 11.4326 99.5645 11.0049C99.1602 10.5771 98.6211 10.3633 97.9473 10.3633C97.1387 10.3633 96.5088 10.5947 96.0576 11.0576C95.6123 11.5146 95.3896 12.1533 95.3896 12.9736H93.7637C93.7637 11.7959 94.1416 10.8438 94.8975 10.1172C95.6592 9.39062 96.6758 9.02734 97.9473 9.02734C99.1367 9.02734 100.077 9.34082 100.769 9.96777C101.46 10.5889 101.806 11.418 101.806 12.4551C101.806 13.7148 101.003 15.2148 99.3975 16.9551L95.9697 20.6729H102.395V22Z" fill="black"/>
<path d="M84.374 69.8105H85.5957C86.3633 69.7988 86.9668 69.5967 87.4062 69.2041C87.8457 68.8115 88.0654 68.2812 88.0654 67.6133C88.0654 66.1133 87.3184 65.3633 85.8242 65.3633C85.1211 65.3633 84.5586 65.5654 84.1367 65.9697C83.7207 66.3682 83.5127 66.8984 83.5127 67.5605H81.8867C81.8867 66.5469 82.2559 65.7061 82.9941 65.0381C83.7383 64.3643 84.6816 64.0273 85.8242 64.0273C87.0312 64.0273 87.9775 64.3467 88.6631 64.9854C89.3486 65.624 89.6914 66.5117 89.6914 67.6484C89.6914 68.2051 89.5098 68.7441 89.1465 69.2656C88.7891 69.7871 88.2998 70.1768 87.6787 70.4346C88.3818 70.6572 88.9238 71.0264 89.3047 71.542C89.6914 72.0576 89.8848 72.6875 89.8848 73.4316C89.8848 74.5801 89.5098 75.4912 88.7598 76.165C88.0098 76.8389 87.0342 77.1758 85.833 77.1758C84.6318 77.1758 83.6533 76.8506 82.8975 76.2002C82.1475 75.5498 81.7725 74.6914 81.7725 73.625H83.4072C83.4072 74.2988 83.627 74.8379 84.0664 75.2422C84.5059 75.6465 85.0947 75.8486 85.833 75.8486C86.6182 75.8486 87.2188 75.6436 87.6348 75.2334C88.0508 74.8232 88.2588 74.2344 88.2588 73.4668C88.2588 72.7227 88.0303 72.1514 87.5732 71.7529C87.1162 71.3545 86.457 71.1494 85.5957 71.1377H84.374V69.8105Z" fill="black"/>
</svg>
